<mxfile host="app.diagrams.net" modified="2024-03-28T08:19:44.765Z" agent="Mozilla/5.0 (Windows NT 10.0; Win64; x64) AppleWebKit/537.36 (KHTML, like Gecko) Chrome/121.0.0.0 Safari/537.36" etag="Klcqp-fY1RVjyd1LB4H5" version="24.2.0" type="device">
  <diagram name="Trang-1" id="gPfaMZQgD_baxmtvdq3x">
    <mxGraphModel dx="1006" dy="567" grid="0" gridSize="10" guides="1" tooltips="1" connect="1" arrows="1" fold="1" page="1" pageScale="1" pageWidth="827" pageHeight="1169" math="0" shadow="0">
      <root>
        <mxCell id="0" />
        <mxCell id="1" parent="0" />
        <mxCell id="Mc94vwRqruMMz7emntDU-1" value="Khách" style="shape=umlActor;verticalLabelPosition=bottom;verticalAlign=top;html=1;" parent="1" vertex="1">
          <mxGeometry x="180" y="20" width="30" height="60" as="geometry" />
        </mxCell>
        <mxCell id="Mc94vwRqruMMz7emntDU-2" value="Cán bộ" style="shape=umlActor;verticalLabelPosition=bottom;verticalAlign=top;html=1;" parent="1" vertex="1">
          <mxGeometry x="160" y="260" width="30" height="60" as="geometry" />
        </mxCell>
        <mxCell id="Mc94vwRqruMMz7emntDU-4" value="Thống kê" style="ellipse;whiteSpace=wrap;html=1;" parent="1" vertex="1">
          <mxGeometry x="570" y="210" width="100" height="60" as="geometry" />
        </mxCell>
        <mxCell id="Mc94vwRqruMMz7emntDU-5" value="Quản lý cán bộ" style="ellipse;whiteSpace=wrap;html=1;" parent="1" vertex="1">
          <mxGeometry x="530" y="120" width="100" height="60" as="geometry" />
        </mxCell>
        <mxCell id="Mc94vwRqruMMz7emntDU-6" value="Đăng nhập" style="ellipse;whiteSpace=wrap;html=1;" parent="1" vertex="1">
          <mxGeometry x="310" y="260" width="104" height="60" as="geometry" />
        </mxCell>
        <mxCell id="Mc94vwRqruMMz7emntDU-8" value="Đăng xuất" style="ellipse;whiteSpace=wrap;html=1;" parent="1" vertex="1">
          <mxGeometry x="310" y="120" width="104" height="60" as="geometry" />
        </mxCell>
        <mxCell id="Mc94vwRqruMMz7emntDU-9" value="Đổi mật khẩu" style="ellipse;whiteSpace=wrap;html=1;" parent="1" vertex="1">
          <mxGeometry x="310" y="400" width="104" height="60" as="geometry" />
        </mxCell>
        <mxCell id="Mc94vwRqruMMz7emntDU-10" value="Cập nhật&amp;nbsp;" style="ellipse;whiteSpace=wrap;html=1;" parent="1" vertex="1">
          <mxGeometry x="530" y="320" width="110" height="70" as="geometry" />
        </mxCell>
        <mxCell id="Mc94vwRqruMMz7emntDU-14" value="Tìm kiếm" style="ellipse;whiteSpace=wrap;html=1;" parent="1" vertex="1">
          <mxGeometry x="320" y="20" width="94" height="60" as="geometry" />
        </mxCell>
        <mxCell id="Mc94vwRqruMMz7emntDU-15" value="" style="endArrow=classic;html=1;rounded=0;entryX=0;entryY=0.5;entryDx=0;entryDy=0;" parent="1" source="Mc94vwRqruMMz7emntDU-1" target="Mc94vwRqruMMz7emntDU-14" edge="1">
          <mxGeometry width="50" height="50" relative="1" as="geometry">
            <mxPoint x="390" y="320" as="sourcePoint" />
            <mxPoint x="440" y="270" as="targetPoint" />
          </mxGeometry>
        </mxCell>
        <mxCell id="Mc94vwRqruMMz7emntDU-16" value="" style="endArrow=classic;html=1;rounded=0;" parent="1" target="Mc94vwRqruMMz7emntDU-6" edge="1">
          <mxGeometry width="50" height="50" relative="1" as="geometry">
            <mxPoint x="190" y="290" as="sourcePoint" />
            <mxPoint x="440" y="270" as="targetPoint" />
          </mxGeometry>
        </mxCell>
        <mxCell id="Mc94vwRqruMMz7emntDU-17" value="" style="endArrow=classic;html=1;rounded=0;edgeStyle=orthogonalEdgeStyle;" parent="1" source="Mc94vwRqruMMz7emntDU-2" target="Mc94vwRqruMMz7emntDU-14" edge="1">
          <mxGeometry width="50" height="50" relative="1" as="geometry">
            <mxPoint x="390" y="320" as="sourcePoint" />
            <mxPoint x="440" y="270" as="targetPoint" />
            <Array as="points">
              <mxPoint x="260" y="270" />
              <mxPoint x="260" y="70" />
            </Array>
          </mxGeometry>
        </mxCell>
        <mxCell id="Mc94vwRqruMMz7emntDU-26" value="" style="endArrow=open;endFill=1;endSize=12;html=1;rounded=0;" parent="1" target="Mc94vwRqruMMz7emntDU-10" edge="1">
          <mxGeometry width="160" relative="1" as="geometry">
            <mxPoint x="410" y="300" as="sourcePoint" />
            <mxPoint x="490" y="290" as="targetPoint" />
          </mxGeometry>
        </mxCell>
        <mxCell id="Mc94vwRqruMMz7emntDU-28" value="" style="endArrow=open;endFill=1;endSize=12;html=1;rounded=0;entryX=0;entryY=0.5;entryDx=0;entryDy=0;exitX=0.985;exitY=0.327;exitDx=0;exitDy=0;exitPerimeter=0;" parent="1" source="Mc94vwRqruMMz7emntDU-6" target="Mc94vwRqruMMz7emntDU-4" edge="1">
          <mxGeometry width="160" relative="1" as="geometry">
            <mxPoint x="330" y="190" as="sourcePoint" />
            <mxPoint x="490" y="190" as="targetPoint" />
          </mxGeometry>
        </mxCell>
        <mxCell id="Mc94vwRqruMMz7emntDU-29" value="" style="endArrow=open;endFill=1;endSize=12;html=1;rounded=0;entryX=0;entryY=1;entryDx=0;entryDy=0;exitX=1;exitY=0;exitDx=0;exitDy=0;" parent="1" source="Mc94vwRqruMMz7emntDU-6" target="Mc94vwRqruMMz7emntDU-5" edge="1">
          <mxGeometry width="160" relative="1" as="geometry">
            <mxPoint x="330" y="190" as="sourcePoint" />
            <mxPoint x="490" y="190" as="targetPoint" />
          </mxGeometry>
        </mxCell>
        <mxCell id="Mc94vwRqruMMz7emntDU-30" value="" style="endArrow=open;endFill=1;endSize=12;html=1;rounded=0;entryX=0.5;entryY=0;entryDx=0;entryDy=0;exitX=0.5;exitY=1;exitDx=0;exitDy=0;" parent="1" source="Mc94vwRqruMMz7emntDU-8" target="Mc94vwRqruMMz7emntDU-6" edge="1">
          <mxGeometry width="160" relative="1" as="geometry">
            <mxPoint x="330" y="190" as="sourcePoint" />
            <mxPoint x="490" y="190" as="targetPoint" />
          </mxGeometry>
        </mxCell>
        <mxCell id="Mc94vwRqruMMz7emntDU-31" value="" style="endArrow=open;endFill=1;endSize=12;html=1;rounded=0;exitX=0.5;exitY=0;exitDx=0;exitDy=0;entryX=0.5;entryY=1;entryDx=0;entryDy=0;" parent="1" source="Mc94vwRqruMMz7emntDU-9" target="Mc94vwRqruMMz7emntDU-6" edge="1">
          <mxGeometry width="160" relative="1" as="geometry">
            <mxPoint x="330" y="190" as="sourcePoint" />
            <mxPoint x="490" y="190" as="targetPoint" />
          </mxGeometry>
        </mxCell>
        <mxCell id="Mc94vwRqruMMz7emntDU-32" value="&amp;lt;&amp;lt;include&amp;gt;&amp;gt;" style="text;html=1;align=center;verticalAlign=middle;whiteSpace=wrap;rounded=0;" parent="1" vertex="1">
          <mxGeometry x="370" y="200" width="60" height="30" as="geometry" />
        </mxCell>
        <mxCell id="Mc94vwRqruMMz7emntDU-33" value="&amp;lt;&amp;lt;include&amp;gt;&amp;gt;" style="text;html=1;align=center;verticalAlign=middle;whiteSpace=wrap;rounded=0;" parent="1" vertex="1">
          <mxGeometry x="370" y="340" width="60" height="30" as="geometry" />
        </mxCell>
      </root>
    </mxGraphModel>
  </diagram>
</mxfile>
